<svg xmlns="http://www.w3.org/2000/svg" xmlns:xlink="http://www.w3.org/1999/xlink" width="500" zoomAndPan="magnify" viewBox="0 0 375 374.999991" height="500" preserveAspectRatio="xMidYMid meet" version="1.0"><defs><g/><clipPath id="96a0c7c5f8"><path d="M 52.429688 210.832031 L 337.5 210.832031 L 337.5 244.144531 L 52.429688 244.144531 Z M 52.429688 210.832031 " clip-rule="nonzero"/></clipPath></defs><rect x="-37.5" width="450" fill="#ffffff" y="-37.499999" height="449.999989" fill-opacity="1"/><rect x="-37.5" width="450" fill="#f4f4f4" y="-37.499999" height="449.999989" fill-opacity="1"/><g fill="#000000" fill-opacity="1"><g transform="translate(180.844051, 276.204962)"><g><path d="M 41.984375 1.640625 C 30.441406 1.640625 21.726562 -0.59375 15.84375 -5.0625 C 9.96875 -9.53125 7.03125 -14.867188 7.03125 -21.078125 C 7.03125 -25.210938 8.28125 -28.3125 10.78125 -30.375 C 13.28125 -32.445312 16.546875 -33.484375 20.578125 -33.484375 C 20.691406 -21.617188 22.707031 -13.070312 26.625 -7.84375 C 30.550781 -2.613281 36.269531 0 43.78125 0 C 50.644531 0 56.226562 -1.957031 60.53125 -5.875 C 64.832031 -9.800781 66.984375 -15.578125 66.984375 -23.203125 C 66.984375 -28.210938 66 -32.265625 64.03125 -35.359375 C 62.070312 -38.460938 59.078125 -41.238281 55.046875 -43.6875 C 51.023438 -46.144531 45.800781 -48.84375 39.375 -51.78125 C 34.03125 -54.175781 29.070312 -56.867188 24.5 -59.859375 C 19.925781 -62.859375 16.25 -66.535156 13.46875 -70.890625 C 10.695312 -75.253906 9.3125 -80.753906 9.3125 -87.390625 C 9.3125 -97.304688 12.578125 -104.929688 19.109375 -110.265625 C 25.648438 -115.597656 34.523438 -118.265625 45.734375 -118.265625 C 55.535156 -118.265625 63.347656 -116.410156 69.171875 -112.703125 C 75.003906 -109.003906 77.921875 -104.597656 77.921875 -99.484375 C 77.921875 -96.109375 76.585938 -93.410156 73.921875 -91.390625 C 71.253906 -89.378906 67.632812 -88.375 63.0625 -88.375 C 63.0625 -97.738281 61.617188 -104.757812 58.734375 -109.4375 C 55.847656 -114.125 51.023438 -116.46875 44.265625 -116.46875 C 38.492188 -116.46875 33.703125 -114.753906 29.890625 -111.328125 C 26.078125 -107.898438 24.171875 -102.484375 24.171875 -95.078125 C 24.171875 -90.066406 25.125 -85.925781 27.03125 -82.65625 C 28.9375 -79.394531 31.929688 -76.507812 36.015625 -74 C 40.097656 -71.5 45.300781 -68.832031 51.625 -66 C 57.71875 -63.382812 63.078125 -60.632812 67.703125 -57.75 C 72.335938 -54.863281 75.960938 -51.347656 78.578125 -47.203125 C 81.191406 -43.066406 82.5 -37.84375 82.5 -31.53125 C 82.5 -21.40625 78.984375 -13.34375 71.953125 -7.34375 C 64.929688 -1.351562 54.941406 1.640625 41.984375 1.640625 Z M 41.984375 1.640625 "/></g></g></g><g fill="#000000" fill-opacity="1"><g transform="translate(47.713386, 225.499486)"><g><path d="M 5.71875 0 L 5.71875 -1.640625 L 13.71875 -1.640625 C 17.425781 -1.640625 20.335938 -2.507812 22.453125 -4.25 C 24.578125 -5.988281 25.640625 -8.875 25.640625 -12.90625 L 25.640625 -104.21875 C 25.640625 -108.03125 24.578125 -110.78125 22.453125 -112.46875 C 20.335938 -114.15625 17.425781 -115 13.71875 -115 L 5.71875 -115 L 5.71875 -116.640625 L 42.140625 -116.640625 L 81.515625 -20.90625 L 115.328125 -116.640625 L 148.171875 -116.640625 L 148.171875 -115 L 144.734375 -115 C 140.816406 -115 137.820312 -114.128906 135.75 -112.390625 C 133.675781 -110.648438 132.640625 -107.707031 132.640625 -103.5625 L 132.640625 -13.0625 C 132.640625 -8.925781 133.675781 -5.988281 135.75 -4.25 C 137.820312 -2.507812 140.816406 -1.640625 144.734375 -1.640625 L 148.171875 -1.640625 L 148.171875 0 L 102.265625 0 L 102.265625 -1.640625 L 103.078125 -1.640625 C 106.566406 -1.640625 109.316406 -2.484375 111.328125 -4.171875 C 113.347656 -5.859375 114.359375 -8.710938 114.359375 -12.734375 L 114.359375 -108.796875 L 76.125 0 L 71.0625 0 L 27.28125 -107 L 27.28125 -13.0625 C 27.28125 -8.925781 28.367188 -5.988281 30.546875 -4.25 C 32.722656 -2.507812 35.988281 -1.640625 40.34375 -1.640625 L 44.265625 -1.640625 L 44.265625 0 Z M 5.71875 0 "/></g></g></g><g fill="#000000" fill-opacity="1"><g transform="translate(95.789872, 250.491808)"><g><path d="M 0.984375 -2.292969 L 0.984375 -4.167969 L 2.058594 -4.167969 C 2.339844 -4.167969 2.5625 -4.078125 2.734375 -3.910156 C 2.898438 -3.734375 2.984375 -3.515625 2.984375 -3.242188 C 2.984375 -2.964844 2.898438 -2.742188 2.71875 -2.558594 C 2.542969 -2.378906 2.324219 -2.292969 2.058594 -2.292969 Z M 3.460938 -3.230469 C 3.460938 -3.636719 3.3125 -3.972656 3.027344 -4.238281 C 2.742188 -4.496094 2.398438 -4.625 1.992188 -4.625 L 0.511719 -4.625 L 0.511719 0 L 0.984375 0 L 0.984375 -1.828125 L 1.992188 -1.828125 C 2.398438 -1.828125 2.746094 -1.957031 3.027344 -2.214844 C 3.3125 -2.488281 3.460938 -2.820312 3.460938 -3.230469 Z M 3.460938 -3.230469 "/></g></g></g><g fill="#000000" fill-opacity="1"><g transform="translate(104.609389, 250.491808)"><g><path d="M 4.582031 -2.324219 C 4.582031 -1.796875 4.394531 -1.347656 4.027344 -0.980469 C 3.652344 -0.605469 3.203125 -0.421875 2.679688 -0.421875 C 2.15625 -0.421875 1.707031 -0.605469 1.339844 -0.980469 C 0.964844 -1.347656 0.78125 -1.796875 0.78125 -2.324219 C 0.78125 -2.84375 0.964844 -3.292969 1.339844 -3.664062 C 1.707031 -4.03125 2.15625 -4.222656 2.679688 -4.222656 C 3.203125 -4.222656 3.652344 -4.03125 4.027344 -3.664062 C 4.394531 -3.292969 4.582031 -2.84375 4.582031 -2.324219 Z M 5.058594 -2.324219 C 5.058594 -2.652344 4.992188 -2.957031 4.867188 -3.25 C 4.746094 -3.535156 4.578125 -3.789062 4.359375 -4.003906 C 4.140625 -4.214844 3.890625 -4.386719 3.605469 -4.507812 C 3.3125 -4.628906 3.003906 -4.699219 2.679688 -4.699219 C 2.351562 -4.699219 2.039062 -4.628906 1.753906 -4.507812 C 1.46875 -4.386719 1.21875 -4.214844 1 -4.003906 C 0.78125 -3.789062 0.613281 -3.535156 0.488281 -3.25 C 0.367188 -2.957031 0.304688 -2.652344 0.304688 -2.324219 C 0.304688 -2 0.367188 -1.6875 0.488281 -1.402344 C 0.613281 -1.109375 0.78125 -0.855469 1 -0.640625 C 1.21875 -0.421875 1.46875 -0.25 1.753906 -0.128906 C 2.039062 -0.0078125 2.351562 0.0546875 2.679688 0.0546875 C 3.003906 0.0546875 3.3125 -0.0078125 3.605469 -0.128906 C 3.890625 -0.25 4.140625 -0.421875 4.359375 -0.640625 C 4.578125 -0.855469 4.746094 -1.109375 4.867188 -1.402344 C 4.992188 -1.6875 5.058594 -2 5.058594 -2.324219 Z M 5.058594 -2.324219 "/></g></g></g><g fill="#000000" fill-opacity="1"><g transform="translate(115.1969, 250.491808)"><g><path d="M 0.984375 -2.285156 L 0.984375 -4.167969 L 2.058594 -4.167969 C 2.339844 -4.167969 2.5625 -4.078125 2.734375 -3.902344 C 2.898438 -3.726562 2.984375 -3.507812 2.984375 -3.238281 C 2.984375 -2.964844 2.898438 -2.742188 2.71875 -2.558594 C 2.542969 -2.375 2.324219 -2.285156 2.058594 -2.285156 Z M 3.460938 -3.230469 C 3.460938 -3.625 3.3125 -3.964844 3.027344 -4.230469 C 2.746094 -4.488281 2.398438 -4.625 1.992188 -4.625 L 0.511719 -4.625 L 0.511719 0 L 0.984375 0 L 0.984375 -1.828125 L 1.535156 -1.828125 L 2.898438 0 L 3.535156 0 L 2.109375 -1.828125 C 2.46875 -1.847656 2.773438 -1.980469 3.027344 -2.214844 C 3.3125 -2.480469 3.460938 -2.820312 3.460938 -3.230469 Z M 3.460938 -3.230469 "/></g></g></g><g fill="#000000" fill-opacity="1"><g transform="translate(124.118421, 250.491808)"><g><path d="M 0.136719 -4.195312 L 1.257812 -4.195312 L 1.257812 -0.0117188 L 1.734375 -0.0117188 L 1.734375 -4.195312 L 2.855469 -4.195312 L 2.855469 -4.636719 L 0.136719 -4.636719 Z M 0.136719 -4.195312 "/></g></g></g><g fill="#000000" fill-opacity="1"><g transform="translate(132.33275, 250.491808)"><g><path d="M 3.257812 -4.183594 L 3.257812 -4.625 L 0.511719 -4.625 L 0.511719 0 L 0.984375 0 L 0.984375 -2.085938 L 3.1875 -2.085938 L 3.1875 -2.535156 L 0.984375 -2.535156 L 0.984375 -4.183594 Z M 3.257812 -4.183594 "/></g></g></g><g fill="#000000" fill-opacity="1"><g transform="translate(140.948271, 250.491808)"><g><path d="M 4.582031 -2.324219 C 4.582031 -1.796875 4.394531 -1.347656 4.027344 -0.980469 C 3.652344 -0.605469 3.203125 -0.421875 2.679688 -0.421875 C 2.15625 -0.421875 1.707031 -0.605469 1.339844 -0.980469 C 0.964844 -1.347656 0.78125 -1.796875 0.78125 -2.324219 C 0.78125 -2.84375 0.964844 -3.292969 1.339844 -3.664062 C 1.707031 -4.03125 2.15625 -4.222656 2.679688 -4.222656 C 3.203125 -4.222656 3.652344 -4.03125 4.027344 -3.664062 C 4.394531 -3.292969 4.582031 -2.84375 4.582031 -2.324219 Z M 5.058594 -2.324219 C 5.058594 -2.652344 4.992188 -2.957031 4.867188 -3.25 C 4.746094 -3.535156 4.578125 -3.789062 4.359375 -4.003906 C 4.140625 -4.214844 3.890625 -4.386719 3.605469 -4.507812 C 3.3125 -4.628906 3.003906 -4.699219 2.679688 -4.699219 C 2.351562 -4.699219 2.039062 -4.628906 1.753906 -4.507812 C 1.46875 -4.386719 1.21875 -4.214844 1 -4.003906 C 0.78125 -3.789062 0.613281 -3.535156 0.488281 -3.25 C 0.367188 -2.957031 0.304688 -2.652344 0.304688 -2.324219 C 0.304688 -2 0.367188 -1.6875 0.488281 -1.402344 C 0.613281 -1.109375 0.78125 -0.855469 1 -0.640625 C 1.21875 -0.421875 1.46875 -0.25 1.753906 -0.128906 C 2.039062 -0.0078125 2.351562 0.0546875 2.679688 0.0546875 C 3.003906 0.0546875 3.3125 -0.0078125 3.605469 -0.128906 C 3.890625 -0.25 4.140625 -0.421875 4.359375 -0.640625 C 4.578125 -0.855469 4.746094 -1.109375 4.867188 -1.402344 C 4.992188 -1.6875 5.058594 -2 5.058594 -2.324219 Z M 5.058594 -2.324219 "/></g></g></g><g fill="#000000" fill-opacity="1"><g transform="translate(151.535785, 250.491808)"><g><path d="M 0.984375 -0.476562 L 0.984375 -4.625 L 0.511719 -4.625 L 0.511719 0 L 2.636719 0 L 2.636719 -0.476562 Z M 0.984375 -0.476562 "/></g></g></g><g fill="#000000" fill-opacity="1"><g transform="translate(159.532516, 250.491808)"><g><path d="M 0.984375 0 L 0.984375 -4.625 L 0.511719 -4.625 L 0.511719 0 Z M 0.984375 0 "/></g></g></g><g fill="#000000" fill-opacity="1"><g transform="translate(166.250848, 250.491808)"><g><path d="M 4.582031 -2.324219 C 4.582031 -1.796875 4.394531 -1.347656 4.027344 -0.980469 C 3.652344 -0.605469 3.203125 -0.421875 2.679688 -0.421875 C 2.15625 -0.421875 1.707031 -0.605469 1.339844 -0.980469 C 0.964844 -1.347656 0.78125 -1.796875 0.78125 -2.324219 C 0.78125 -2.84375 0.964844 -3.292969 1.339844 -3.664062 C 1.707031 -4.03125 2.15625 -4.222656 2.679688 -4.222656 C 3.203125 -4.222656 3.652344 -4.03125 4.027344 -3.664062 C 4.394531 -3.292969 4.582031 -2.84375 4.582031 -2.324219 Z M 5.058594 -2.324219 C 5.058594 -2.652344 4.992188 -2.957031 4.867188 -3.25 C 4.746094 -3.535156 4.578125 -3.789062 4.359375 -4.003906 C 4.140625 -4.214844 3.890625 -4.386719 3.605469 -4.507812 C 3.3125 -4.628906 3.003906 -4.699219 2.679688 -4.699219 C 2.351562 -4.699219 2.039062 -4.628906 1.753906 -4.507812 C 1.46875 -4.386719 1.21875 -4.214844 1 -4.003906 C 0.78125 -3.789062 0.613281 -3.535156 0.488281 -3.25 C 0.367188 -2.957031 0.304688 -2.652344 0.304688 -2.324219 C 0.304688 -2 0.367188 -1.6875 0.488281 -1.402344 C 0.613281 -1.109375 0.78125 -0.855469 1 -0.640625 C 1.21875 -0.421875 1.46875 -0.25 1.753906 -0.128906 C 2.039062 -0.0078125 2.351562 0.0546875 2.679688 0.0546875 C 3.003906 0.0546875 3.3125 -0.0078125 3.605469 -0.128906 C 3.890625 -0.25 4.140625 -0.421875 4.359375 -0.640625 C 4.578125 -0.855469 4.746094 -1.109375 4.867188 -1.402344 C 4.992188 -1.6875 5.058594 -2 5.058594 -2.324219 Z M 5.058594 -2.324219 "/></g></g></g><g clip-path="url(#96a0c7c5f8)"><path fill="#f4f4f4" d="M 52.429688 210.832031 L 337.5 210.832031 L 337.5 244.144531 L 52.429688 244.144531 Z M 52.429688 210.832031 " fill-opacity="1" fill-rule="nonzero"/></g><g fill="#000000" fill-opacity="1"><g transform="translate(91.490506, 231.194809)"><g><path d="M 5.140625 0.0546875 C 9.816406 -2.015625 12.675781 -8.464844 14.339844 -12.621094 C 14.351562 -12.691406 14.421875 -12.71875 14.496094 -12.707031 C 14.566406 -12.691406 14.605469 -12.621094 14.605469 -12.550781 C 14.101562 -8.28125 13.085938 -2.71875 12.832031 -1.378906 C 12.804688 -1.226562 12.886719 -1.054688 13.042969 -0.984375 C 13.199219 -0.914062 13.382812 -0.957031 13.480469 -1.085938 C 15.242188 -3.210938 18.394531 -8.351562 20.496094 -11.902344 C 20.535156 -11.957031 20.621094 -11.988281 20.679688 -11.957031 C 20.75 -11.929688 20.777344 -11.859375 20.761719 -11.789062 C 19.042969 -5.523438 17.960938 -0.253906 20.015625 0.394531 C 20.214844 0.449219 20.425781 0.339844 20.480469 0.140625 C 20.535156 -0.0546875 20.4375 -0.253906 20.242188 -0.324219 C 18.425781 -0.875 21.03125 -10.042969 22.144531 -13.945312 C 22.296875 -14.535156 22.453125 -15.070312 22.59375 -15.566406 C 22.636719 -15.746094 22.539062 -15.929688 22.367188 -16 C 22.183594 -16.070312 21.988281 -16 21.902344 -15.832031 C 21.425781 -14.902344 17.3125 -7.789062 14.4375 -3.621094 C 14.382812 -3.519531 14.253906 -3.492188 14.15625 -3.535156 C 14.058594 -3.578125 14 -3.675781 14.015625 -3.789062 C 14.621094 -7.199219 15.535156 -12.847656 15.605469 -15.816406 C 15.621094 -15.988281 15.507812 -16.140625 15.339844 -16.183594 C 15.171875 -16.226562 15 -16.140625 14.917969 -15.988281 C 14.707031 -15.578125 14.421875 -14.875 14.070312 -13.972656 C 12.535156 -10.058594 9.664062 -2.746094 4.84375 -0.621094 C 3.4375 0 2.394531 -0.28125 1.875 -0.746094 C 1.480469 -1.097656 1.339844 -1.648438 1.507812 -2.140625 C 1.84375 -3.140625 3.226562 -3.832031 5.183594 -4 C 5.28125 -4 5.367188 -4.042969 5.4375 -4.128906 C 5.492188 -4.199219 5.535156 -4.296875 5.523438 -4.394531 C 5.507812 -4.59375 5.324219 -4.746094 5.128906 -4.734375 C 1.859375 -4.449219 1.015625 -3 0.804688 -2.394531 C 0.535156 -1.605469 0.761719 -0.746094 1.378906 -0.195312 C 1.902344 0.253906 2.578125 0.507812 3.28125 0.480469 C 3.914062 0.464844 4.5625 0.324219 5.140625 0.0546875 Z M 5.140625 0.0546875 "/></g></g></g><g fill="#000000" fill-opacity="1"><g transform="translate(113.201103, 231.194809)"><g><path d="M 12.210938 -3.957031 C 12.140625 -4.027344 12.042969 -4.058594 11.945312 -4.058594 C 11.847656 -4.058594 11.761719 -4.015625 11.691406 -3.945312 C 10.421875 -2.605469 7.578125 -0.648438 5.492188 -0.648438 L 5.464844 -0.648438 C 4.886719 -0.621094 4.339844 -0.84375 3.945312 -1.253906 C 3.4375 -1.804688 3.789062 -3.296875 3.957031 -3.773438 C 4.027344 -3.957031 3.945312 -4.15625 3.773438 -4.226562 C 3.621094 -4.308594 3.410156 -4.269531 3.308594 -4.113281 C 2.226562 -2.535156 0.675781 -1 0.167969 -1.296875 C 0 -1.410156 0.253906 -2.492188 0.945312 -3.71875 C 1.027344 -3.886719 0.972656 -4.097656 0.804688 -4.199219 C 0.632812 -4.296875 0.410156 -4.253906 0.308594 -4.085938 C -0.167969 -3.253906 -1.167969 -1.238281 -0.210938 -0.660156 C 0.550781 -0.210938 1.578125 -0.945312 2.4375 -1.832031 C 2.519531 -1.929688 2.648438 -1.957031 2.761719 -1.914062 C 2.875 -1.886719 2.957031 -1.789062 2.984375 -1.664062 C 3.027344 -1.324219 3.167969 -1.015625 3.394531 -0.746094 C 3.929688 -0.183594 4.675781 0.125 5.453125 0.0976562 L 5.492188 0.0976562 C 7.816406 0.0976562 10.832031 -1.957031 12.226562 -3.421875 C 12.296875 -3.507812 12.324219 -3.59375 12.324219 -3.691406 C 12.324219 -3.789062 12.28125 -3.886719 12.210938 -3.957031 Z M 12.210938 -3.957031 "/></g></g></g><g fill="#000000" fill-opacity="1"><g transform="translate(124.844856, 231.194809)"><g><path d="M 11.113281 -3.367188 C 10.972656 -3.519531 10.746094 -3.535156 10.59375 -3.394531 C 10.5625 -3.378906 7.664062 -0.84375 5.535156 -1.183594 C 4.902344 -1.28125 4.351562 -1.664062 4.042969 -2.226562 C 3.773438 -2.71875 3.28125 -3.027344 2.734375 -3.085938 C 2.042969 -3.128906 1.28125 -2.71875 0.480469 -1.875 C 0.4375 -1.832031 0.367188 -1.816406 0.308594 -1.84375 C 0.253906 -1.875 0.226562 -1.929688 0.238281 -2 C 0.28125 -2.269531 0.410156 -2.945312 0.464844 -3.199219 C 0.464844 -3.15625 0.5625 -3.351562 0.5625 -3.367188 C 1.761719 -5 5.339844 -10.183594 3.945312 -11.847656 C 3.761719 -12.101562 3.421875 -12.210938 3.113281 -12.128906 C 2.832031 -12.042969 1.972656 -11.777344 0.648438 -7.070312 C 0.324219 -5.929688 0.0273438 -4.703125 -0.210938 -3.550781 L -0.308594 -3.421875 C -0.410156 -3.296875 -0.410156 -3.128906 -0.324219 -2.984375 C -0.535156 -1.945312 -0.675781 -0.984375 -0.746094 -0.253906 C -0.761719 -0.0859375 -0.660156 0.0703125 -0.507812 0.125 C -0.351562 0.183594 -0.167969 0.125 -0.0703125 -0.015625 C 1.367188 -2.097656 2.28125 -2.367188 2.691406 -2.351562 C 2.984375 -2.324219 3.253906 -2.140625 3.394531 -1.875 C 3.816406 -1.113281 4.5625 -0.578125 5.4375 -0.449219 C 7.886719 -0.0703125 10.945312 -2.734375 11.085938 -2.84375 C 11.226562 -2.984375 11.242188 -3.210938 11.113281 -3.367188 Z M 3.324219 -11.421875 C 3.351562 -11.421875 3.367188 -11.382812 3.378906 -11.367188 C 4.058594 -10.605469 1.253906 -4.945312 0.902344 -5.167969 C 0.5625 -5.378906 2.734375 -11.421875 3.324219 -11.421875 Z M 3.324219 -11.421875 "/></g></g></g><g fill="#000000" fill-opacity="1"><g transform="translate(135.488961, 231.194809)"><g><path d="M 11.777344 -3.410156 C 11.636719 -3.5625 11.394531 -3.578125 11.242188 -3.4375 C 11.199219 -3.394531 7.015625 0.367188 4.421875 -1.339844 C 3.394531 -2.015625 3.140625 -3.648438 3.140625 -3.664062 C 3.128906 -3.832031 3 -3.957031 2.832031 -3.984375 C 2.675781 -4 2.507812 -3.914062 2.4375 -3.773438 C 1.773438 -2.308594 0.605469 -0.449219 0.28125 -0.660156 C 0.253906 -0.660156 0.195312 -0.71875 0.15625 -0.816406 C -0.015625 -1.28125 0.0429688 -1.789062 0.28125 -2.226562 C 0.816406 -3.324219 1.804688 -4.113281 2.984375 -4.410156 C 3.113281 -4.4375 3.210938 -4.535156 3.253906 -4.664062 C 3.296875 -4.789062 3.253906 -4.929688 3.167969 -5.027344 C 3.070312 -5.113281 2.945312 -5.15625 2.816406 -5.128906 C 1.410156 -4.789062 0.238281 -3.832031 -0.394531 -2.535156 C -0.734375 -1.902344 -0.773438 -1.140625 -0.507812 -0.480469 C -0.378906 -0.15625 -0.0703125 0.0703125 0.28125 0.0703125 L 0.296875 0.0703125 C 0.984375 0.0546875 1.84375 -0.804688 2.4375 -1.734375 C 2.507812 -1.84375 2.632812 -1.902344 2.761719 -1.886719 C 2.886719 -1.886719 3 -1.816406 3.054688 -1.703125 C 3.296875 -1.308594 3.621094 -0.972656 4.015625 -0.734375 C 7.085938 1.308594 11.550781 -2.71875 11.746094 -2.886719 C 11.816406 -2.957031 11.859375 -3.054688 11.859375 -3.140625 C 11.875 -3.238281 11.832031 -3.339844 11.777344 -3.410156 Z M 11.777344 -3.410156 "/></g></g></g><g fill="#000000" fill-opacity="1"><g transform="translate(146.865201, 231.194809)"><g><path d="M 15.453125 -3.578125 C 15.296875 -3.703125 15.058594 -3.675781 14.929688 -3.519531 C 14.902344 -3.480469 11.761719 0.351562 8.875 -1.324219 C 8.492188 -1.589844 8.199219 -1.957031 8.042969 -2.378906 C 7.773438 -2.914062 7.453125 -3.5625 6.550781 -3.421875 C 6.085938 -3.351562 5.367188 -2.761719 4.761719 -2.085938 C 4.734375 -2.042969 4.675781 -2.027344 4.632812 -2.042969 C 4.59375 -2.054688 4.550781 -2.085938 4.550781 -2.140625 C 4.4375 -2.773438 4.015625 -3.308594 3.421875 -3.5625 C 2.945312 -3.691406 2.167969 -3.832031 0.550781 -2.226562 C 0.464844 -2.15625 0.351562 -2.183594 0.367188 -2.296875 C 0.367188 -2.351562 0.648438 -3.492188 0.648438 -3.492188 C 0.691406 -3.691406 0.5625 -3.886719 0.367188 -3.945312 C 0.167969 -3.984375 -0.0273438 -3.859375 -0.0859375 -3.664062 L -0.761719 -0.691406 C -0.804688 -0.519531 -0.71875 -0.351562 -0.5625 -0.269531 C -0.394531 -0.195312 -0.210938 -0.238281 -0.113281 -0.378906 C 1.773438 -2.746094 2.703125 -2.972656 3.085938 -2.914062 C 3.464844 -2.84375 3.972656 -2.085938 3.914062 -0.859375 C 3.914062 -0.691406 4.015625 -0.535156 4.183594 -0.492188 C 4.351562 -0.4375 4.523438 -0.507812 4.605469 -0.648438 C 5.183594 -1.632812 6.308594 -2.632812 6.664062 -2.691406 C 7 -2.746094 7.097656 -2.621094 7.382812 -2.054688 C 7.59375 -1.492188 7.988281 -1.015625 8.492188 -0.691406 C 9.085938 -0.339844 9.761719 -0.140625 10.453125 -0.140625 C 13.140625 -0.140625 15.394531 -2.902344 15.507812 -3.054688 C 15.636719 -3.210938 15.605469 -3.449219 15.453125 -3.578125 Z M 15.453125 -3.578125 "/></g></g></g><g fill="#000000" fill-opacity="1"><g transform="translate(161.69092, 231.194809)"><g><path d="M 15.453125 -3.578125 C 15.296875 -3.703125 15.058594 -3.675781 14.929688 -3.519531 C 14.902344 -3.480469 11.761719 0.351562 8.875 -1.324219 C 8.492188 -1.589844 8.199219 -1.957031 8.042969 -2.378906 C 7.773438 -2.914062 7.453125 -3.5625 6.550781 -3.421875 C 6.085938 -3.351562 5.367188 -2.761719 4.761719 -2.085938 C 4.734375 -2.042969 4.675781 -2.027344 4.632812 -2.042969 C 4.59375 -2.054688 4.550781 -2.085938 4.550781 -2.140625 C 4.4375 -2.773438 4.015625 -3.308594 3.421875 -3.5625 C 2.945312 -3.691406 2.167969 -3.832031 0.550781 -2.226562 C 0.464844 -2.15625 0.351562 -2.183594 0.367188 -2.296875 C 0.367188 -2.351562 0.648438 -3.492188 0.648438 -3.492188 C 0.691406 -3.691406 0.5625 -3.886719 0.367188 -3.945312 C 0.167969 -3.984375 -0.0273438 -3.859375 -0.0859375 -3.664062 L -0.761719 -0.691406 C -0.804688 -0.519531 -0.71875 -0.351562 -0.5625 -0.269531 C -0.394531 -0.195312 -0.210938 -0.238281 -0.113281 -0.378906 C 1.773438 -2.746094 2.703125 -2.972656 3.085938 -2.914062 C 3.464844 -2.84375 3.972656 -2.085938 3.914062 -0.859375 C 3.914062 -0.691406 4.015625 -0.535156 4.183594 -0.492188 C 4.351562 -0.4375 4.523438 -0.507812 4.605469 -0.648438 C 5.183594 -1.632812 6.308594 -2.632812 6.664062 -2.691406 C 7 -2.746094 7.097656 -2.621094 7.382812 -2.054688 C 7.59375 -1.492188 7.988281 -1.015625 8.492188 -0.691406 C 9.085938 -0.339844 9.761719 -0.140625 10.453125 -0.140625 C 13.140625 -0.140625 15.394531 -2.902344 15.507812 -3.054688 C 15.636719 -3.210938 15.605469 -3.449219 15.453125 -3.578125 Z M 15.453125 -3.578125 "/></g></g></g><g fill="#000000" fill-opacity="1"><g transform="translate(176.516638, 231.194809)"><g><path d="M 11.777344 -3.410156 C 11.636719 -3.5625 11.394531 -3.578125 11.242188 -3.4375 C 11.199219 -3.394531 7.015625 0.367188 4.421875 -1.339844 C 3.394531 -2.015625 3.140625 -3.648438 3.140625 -3.664062 C 3.128906 -3.832031 3 -3.957031 2.832031 -3.984375 C 2.675781 -4 2.507812 -3.914062 2.4375 -3.773438 C 1.773438 -2.308594 0.605469 -0.449219 0.28125 -0.660156 C 0.253906 -0.660156 0.195312 -0.71875 0.15625 -0.816406 C -0.015625 -1.28125 0.0429688 -1.789062 0.28125 -2.226562 C 0.816406 -3.324219 1.804688 -4.113281 2.984375 -4.410156 C 3.113281 -4.4375 3.210938 -4.535156 3.253906 -4.664062 C 3.296875 -4.789062 3.253906 -4.929688 3.167969 -5.027344 C 3.070312 -5.113281 2.945312 -5.15625 2.816406 -5.128906 C 1.410156 -4.789062 0.238281 -3.832031 -0.394531 -2.535156 C -0.734375 -1.902344 -0.773438 -1.140625 -0.507812 -0.480469 C -0.378906 -0.15625 -0.0703125 0.0703125 0.28125 0.0703125 L 0.296875 0.0703125 C 0.984375 0.0546875 1.84375 -0.804688 2.4375 -1.734375 C 2.507812 -1.84375 2.632812 -1.902344 2.761719 -1.886719 C 2.886719 -1.886719 3 -1.816406 3.054688 -1.703125 C 3.296875 -1.308594 3.621094 -0.972656 4.015625 -0.734375 C 7.085938 1.308594 11.550781 -2.71875 11.746094 -2.886719 C 11.816406 -2.957031 11.859375 -3.054688 11.859375 -3.140625 C 11.875 -3.238281 11.832031 -3.339844 11.777344 -3.410156 Z M 11.777344 -3.410156 "/></g></g></g><g fill="#000000" fill-opacity="1"><g transform="translate(187.892879, 231.194809)"><g><path d="M 13.324219 -3.226562 C 13.253906 -3.296875 13.171875 -3.324219 13.070312 -3.339844 C 12.972656 -3.339844 12.875 -3.296875 12.804688 -3.226562 C 10.675781 -1.140625 7.578125 -0.421875 6.28125 -0.832031 C 5.183594 -1.183594 4.675781 -2.183594 4.449219 -3.238281 C 4.410156 -3.480469 4.449219 -3.703125 4.578125 -3.902344 C 6.269531 -6.773438 8.058594 -10.917969 7.4375 -11.917969 C 7.296875 -12.140625 7.042969 -12.253906 6.773438 -12.210938 C 5.210938 -12.015625 3.875 -8.777344 3.605469 -5.886719 C 3.550781 -5.269531 3.550781 -4.664062 3.59375 -4.058594 C 3.605469 -3.859375 3.5625 -3.664062 3.449219 -3.492188 C 3.367188 -3.351562 3.269531 -3.199219 3.167969 -3.054688 C 1.929688 -1.226562 1.085938 -0.632812 0.734375 -0.675781 C 0.550781 -0.691406 0.394531 -0.816406 0.351562 -0.984375 C 0.210938 -1.703125 0.378906 -2.4375 0.789062 -3.027344 C 1.085938 -3.378906 1.519531 -3.773438 1.945312 -3.691406 C 2.183594 -3.621094 2.378906 -3.4375 2.480469 -3.210938 C 2.519531 -3.015625 2.703125 -2.875 2.902344 -2.902344 C 3.097656 -2.929688 3.238281 -3.113281 3.210938 -3.324219 C 3.070312 -3.832031 2.691406 -4.226562 2.183594 -4.378906 C 1.746094 -4.523438 1.042969 -4.464844 0.226562 -3.507812 C -0.226562 -2.984375 -0.675781 -1.605469 -0.339844 -0.71875 C -0.195312 -0.296875 0.183594 0 0.621094 0.0546875 C 0.660156 0.0546875 0.71875 0.0546875 0.761719 0.0546875 C 1.507812 0.0546875 2.449219 -0.746094 3.5625 -2.339844 C 3.605469 -2.394531 3.691406 -2.4375 3.773438 -2.421875 C 3.859375 -2.421875 3.929688 -2.367188 3.957031 -2.296875 C 4.269531 -1.269531 5.058594 -0.464844 6.058594 -0.125 C 7.71875 0.394531 11.097656 -0.535156 13.324219 -2.703125 C 13.464844 -2.84375 13.464844 -3.070312 13.324219 -3.226562 Z M 4.351562 -5.816406 C 4.578125 -8.394531 5.605469 -10.664062 6.480469 -11.3125 C 6.550781 -11.351562 6.648438 -11.367188 6.734375 -11.3125 C 6.804688 -11.269531 6.84375 -11.183594 6.84375 -11.097656 C 6.71875 -10.027344 5.957031 -8.097656 4.550781 -5.59375 C 4.324219 -5.226562 4.324219 -5.5625 4.351562 -5.816406 Z M 4.351562 -5.816406 "/></g></g></g><g fill="#000000" fill-opacity="1"><g transform="translate(200.705222, 231.194809)"><g/></g></g><g fill="#000000" fill-opacity="1"><g transform="translate(205.942798, 231.194809)"><g><path d="M 10.210938 -1.972656 C 11.027344 -4.464844 8.804688 -6.703125 6.664062 -8.886719 C 4.621094 -10.957031 2.675781 -12.929688 3.621094 -14.816406 C 4.324219 -16.253906 6.464844 -16.101562 7.675781 -15.875 C 10.929688 -15.253906 14.507812 -12.945312 14.648438 -11.382812 C 14.691406 -10.816406 14.253906 -10.351562 13.324219 -10 C 12.027344 -9.648438 10.675781 -9.578125 9.351562 -9.761719 C 9.15625 -9.789062 8.972656 -9.648438 8.945312 -9.453125 C 8.917969 -9.253906 9.058594 -9.070312 9.253906 -9.027344 C 10.707031 -8.816406 12.171875 -8.917969 13.59375 -9.3125 C 15.171875 -9.902344 15.4375 -10.804688 15.382812 -11.4375 C 15.199219 -13.578125 11.15625 -15.960938 7.816406 -16.59375 C 5.367188 -17.058594 3.648438 -16.535156 2.957031 -15.140625 C 1.773438 -12.789062 4 -10.535156 6.140625 -8.367188 C 8.128906 -6.351562 10.183594 -4.269531 9.523438 -2.199219 C 9.097656 -0.886719 6.886719 -0.421875 5.027344 -0.550781 C 3.113281 -0.675781 1.605469 -1.367188 1.449219 -2.183594 C 1.367188 -2.621094 1.589844 -3.804688 5.351562 -5.523438 C 5.464844 -5.578125 5.550781 -5.691406 5.5625 -5.832031 C 5.578125 -5.957031 5.523438 -6.097656 5.410156 -6.167969 C 5.296875 -6.238281 5.15625 -6.253906 5.042969 -6.199219 C 1.929688 -4.773438 0.480469 -3.378906 0.71875 -2.054688 C 0.984375 -0.589844 3.183594 0.0703125 4.988281 0.183594 C 5.199219 0.195312 5.410156 0.210938 5.621094 0.210938 C 7.535156 0.210938 9.691406 -0.351562 10.210938 -1.972656 Z M 10.210938 -1.972656 "/></g></g></g><g fill="#000000" fill-opacity="1"><g transform="translate(217.938535, 231.194809)"><g><path d="M 11.777344 -3.410156 C 11.636719 -3.5625 11.394531 -3.578125 11.242188 -3.4375 C 11.199219 -3.394531 7.015625 0.367188 4.421875 -1.339844 C 3.394531 -2.015625 3.140625 -3.648438 3.140625 -3.664062 C 3.128906 -3.832031 3 -3.957031 2.832031 -3.984375 C 2.675781 -4 2.507812 -3.914062 2.4375 -3.773438 C 1.773438 -2.308594 0.605469 -0.449219 0.28125 -0.660156 C 0.253906 -0.660156 0.195312 -0.71875 0.15625 -0.816406 C -0.015625 -1.28125 0.0429688 -1.789062 0.28125 -2.226562 C 0.816406 -3.324219 1.804688 -4.113281 2.984375 -4.410156 C 3.113281 -4.4375 3.210938 -4.535156 3.253906 -4.664062 C 3.296875 -4.789062 3.253906 -4.929688 3.167969 -5.027344 C 3.070312 -5.113281 2.945312 -5.15625 2.816406 -5.128906 C 1.410156 -4.789062 0.238281 -3.832031 -0.394531 -2.535156 C -0.734375 -1.902344 -0.773438 -1.140625 -0.507812 -0.480469 C -0.378906 -0.15625 -0.0703125 0.0703125 0.28125 0.0703125 L 0.296875 0.0703125 C 0.984375 0.0546875 1.84375 -0.804688 2.4375 -1.734375 C 2.507812 -1.84375 2.632812 -1.902344 2.761719 -1.886719 C 2.886719 -1.886719 3 -1.816406 3.054688 -1.703125 C 3.296875 -1.308594 3.621094 -0.972656 4.015625 -0.734375 C 7.085938 1.308594 11.550781 -2.71875 11.746094 -2.886719 C 11.816406 -2.957031 11.859375 -3.054688 11.859375 -3.140625 C 11.875 -3.238281 11.832031 -3.339844 11.777344 -3.410156 Z M 11.777344 -3.410156 "/></g></g></g><g fill="#000000" fill-opacity="1"><g transform="translate(229.314776, 231.194809)"><g><path d="M 13.324219 -3.226562 C 13.253906 -3.296875 13.171875 -3.324219 13.070312 -3.339844 C 12.972656 -3.339844 12.875 -3.296875 12.804688 -3.226562 C 10.675781 -1.140625 7.578125 -0.421875 6.28125 -0.832031 C 5.183594 -1.183594 4.675781 -2.183594 4.449219 -3.238281 C 4.410156 -3.480469 4.449219 -3.703125 4.578125 -3.902344 C 6.269531 -6.773438 8.058594 -10.917969 7.4375 -11.917969 C 7.296875 -12.140625 7.042969 -12.253906 6.773438 -12.210938 C 5.210938 -12.015625 3.875 -8.777344 3.605469 -5.886719 C 3.550781 -5.269531 3.550781 -4.664062 3.59375 -4.058594 C 3.605469 -3.859375 3.5625 -3.664062 3.449219 -3.492188 C 3.367188 -3.351562 3.269531 -3.199219 3.167969 -3.054688 C 1.929688 -1.226562 1.085938 -0.632812 0.734375 -0.675781 C 0.550781 -0.691406 0.394531 -0.816406 0.351562 -0.984375 C 0.210938 -1.703125 0.378906 -2.4375 0.789062 -3.027344 C 1.085938 -3.378906 1.519531 -3.773438 1.945312 -3.691406 C 2.183594 -3.621094 2.378906 -3.4375 2.480469 -3.210938 C 2.519531 -3.015625 2.703125 -2.875 2.902344 -2.902344 C 3.097656 -2.929688 3.238281 -3.113281 3.210938 -3.324219 C 3.070312 -3.832031 2.691406 -4.226562 2.183594 -4.378906 C 1.746094 -4.523438 1.042969 -4.464844 0.226562 -3.507812 C -0.226562 -2.984375 -0.675781 -1.605469 -0.339844 -0.71875 C -0.195312 -0.296875 0.183594 0 0.621094 0.0546875 C 0.660156 0.0546875 0.71875 0.0546875 0.761719 0.0546875 C 1.507812 0.0546875 2.449219 -0.746094 3.5625 -2.339844 C 3.605469 -2.394531 3.691406 -2.4375 3.773438 -2.421875 C 3.859375 -2.421875 3.929688 -2.367188 3.957031 -2.296875 C 4.269531 -1.269531 5.058594 -0.464844 6.058594 -0.125 C 7.71875 0.394531 11.097656 -0.535156 13.324219 -2.703125 C 13.464844 -2.84375 13.464844 -3.070312 13.324219 -3.226562 Z M 4.351562 -5.816406 C 4.578125 -8.394531 5.605469 -10.664062 6.480469 -11.3125 C 6.550781 -11.351562 6.648438 -11.367188 6.734375 -11.3125 C 6.804688 -11.269531 6.84375 -11.183594 6.84375 -11.097656 C 6.71875 -10.027344 5.957031 -8.097656 4.550781 -5.59375 C 4.324219 -5.226562 4.324219 -5.5625 4.351562 -5.816406 Z M 4.351562 -5.816406 "/></g></g></g><g fill="#000000" fill-opacity="1"><g transform="translate(242.127119, 231.194809)"><g><path d="M 9.128906 -3.804688 C 8.972656 -3.945312 8.746094 -3.945312 8.605469 -3.789062 C 8.550781 -3.746094 3.984375 0.902344 0.957031 -1.308594 C 0.0273438 -1.984375 0.929688 -3.746094 0.945312 -3.761719 C 1.027344 -3.945312 0.957031 -4.15625 0.773438 -4.253906 C 0.589844 -4.339844 0.378906 -4.28125 0.28125 -4.097656 C 0.226562 -4.015625 -0.914062 -1.773438 0.519531 -0.71875 C 1.183594 -0.226562 2 0.0429688 2.832031 0.0273438 C 5.875 0.0273438 8.957031 -3.113281 9.128906 -3.28125 C 9.199219 -3.351562 9.242188 -3.4375 9.242188 -3.535156 C 9.226562 -3.632812 9.199219 -3.734375 9.128906 -3.804688 Z M 0.125 -4.914062 C 0.183594 -4.914062 0.238281 -4.929688 0.296875 -4.957031 C 0.632812 -5.128906 0.929688 -5.351562 1.199219 -5.621094 C 1.339844 -5.773438 1.324219 -6 1.183594 -6.140625 C 1.027344 -6.28125 0.804688 -6.28125 0.660156 -6.128906 C 0.449219 -5.917969 0.210938 -5.746094 -0.0546875 -5.605469 C -0.195312 -5.535156 -0.28125 -5.351562 -0.238281 -5.199219 C -0.195312 -5.027344 -0.0429688 -4.914062 0.125 -4.914062 Z M 0.125 -4.914062 "/></g></g></g><g fill="#000000" fill-opacity="1"><g transform="translate(250.771938, 231.194809)"><g><path d="M 9.339844 -3.691406 C 9.253906 -3.761719 9.167969 -3.804688 9.070312 -3.804688 C 8.972656 -3.804688 8.875 -3.761719 8.804688 -3.691406 C 7.703125 -2.550781 5.945312 -2.421875 4.691406 -3.378906 C 4.367188 -3.605469 3.929688 -3.59375 3.648438 -3.324219 C 3.550781 -3.226562 3.449219 -3.140625 3.367188 -3.042969 C 3.238281 -2.914062 3.070312 -2.875 2.902344 -2.929688 C 2.746094 -2.984375 2.632812 -3.113281 2.605469 -3.28125 C 2.5625 -3.535156 2.492188 -3.773438 2.410156 -4 C 2.351562 -4.140625 2.210938 -4.226562 2.054688 -4.226562 C 1.902344 -4.226562 1.773438 -4.128906 1.71875 -3.984375 C 1.308594 -2.886719 0.480469 -1.28125 -0.113281 -1.167969 C -0.15625 -1.15625 -0.269531 -1.140625 -0.4375 -1.324219 C -0.449219 -1.4375 -0.4375 -1.550781 -0.394531 -1.648438 C 0.0976562 -2.816406 0.957031 -3.789062 2.042969 -4.449219 C 2.226562 -4.535156 2.308594 -4.761719 2.210938 -4.945312 C 2.125 -5.128906 1.902344 -5.199219 1.71875 -5.113281 C 0.5625 -4.550781 -0.945312 -2.746094 -1.15625 -1.648438 C -1.238281 -1.367188 -1.167969 -1.054688 -0.984375 -0.816406 C -0.746094 -0.519531 -0.351562 -0.378906 0.0273438 -0.449219 C 0.71875 -0.578125 1.324219 -1.464844 1.761719 -2.28125 C 1.816406 -2.394531 1.929688 -2.378906 1.914062 -2.269531 C 1.902344 -1.902344 1.84375 -1.519531 1.761719 -1.15625 C 1.746094 -1.097656 1.734375 -1.042969 1.703125 -1 C 0.519531 0.832031 -0.113281 2.984375 -0.902344 6.113281 C -0.945312 6.296875 -0.832031 6.492188 -0.660156 6.550781 C -0.621094 6.5625 -0.578125 6.5625 -0.535156 6.5625 C -0.394531 6.5625 -0.253906 6.480469 -0.195312 6.339844 C 1.125 3.226562 2.015625 1 2.421875 -0.691406 C 2.4375 -0.746094 2.449219 -0.789062 2.480469 -0.832031 C 2.859375 -1.394531 3.296875 -1.914062 3.761719 -2.394531 C 4 -2.632812 4.367188 -2.691406 4.664062 -2.519531 C 7.253906 -1.027344 9.324219 -3.15625 9.339844 -3.167969 C 9.480469 -3.324219 9.480469 -3.550781 9.339844 -3.691406 Z M 9.339844 -3.691406 "/></g></g></g></svg>